# xmcd
#
# Track frame offsets:
# 150
# 18297
# 35406
# 53097
# 71077
# 86935
# 107610
# 130140
# 153881
# 173812
# 194334
# 216494
#
# Disc length: 3108 seconds
#
#
# Revision: 1
# Processed by: cddbd v1.5.1PL2 Copyright (c) Steve Scherf et al.
# Submitted via: FreeRIP 2.942 
#
DISCID=a40c220c
DTITLE=Various Artist - Genius Loves Company
DYEAR=2004
DGENRE=Soul
TTITLE0=Ray Charles and Norah Jones - Here We Go Again
TTITLE1=Ray Charles and James Taylor - Sweet Potato Pie
TTITLE2=Ray Charles and Diana Krall - You Don't Know Me
TTITLE3=Ray Charles and Elton John - Sorry Seems To Be The Hardest Word
TTITLE4=Ray Charles And Natalie Cole - Fever
TTITLE5=Ray Charles and Bonnie Raitt - Do I Ever Cross Your Mind?
TTITLE6=Ray Charles and Willie Nelson - It Was A Good Year
TTITLE7=Ray Charles and Michael McDonald - Hey Girl
TTITLE8=Ray Charles and B.B. King - Sinner's Prayer
TTITLE9=Ray Charles and Gladys Knight - Heaven Help Us All
TTITLE10=Johnny Mathis And Ray Charles - Over The Rainbow
TTITLE11=Ray Charles and Van Morrison - Crazy Love
EXTD=
EXTT0=
EXTT1=
EXTT2=
EXTT3=
EXTT4=
EXTT5=
EXTT6=
EXTT7=
EXTT8=
EXTT9=
EXTT10=
EXTT11=
PLAYORDER=
